<?xml version="1.0" standalone="no"?>
<!DOCTYPE svg PUBLIC "-//W3C//DTD SVG 20010904//EN"
 "http://www.w3.org/TR/2001/REC-SVG-20010904/DTD/svg10.dtd">
<svg version="1.0" xmlns="http://www.w3.org/2000/svg"
 width="500.000000pt" height="500.000000pt" viewBox="0 0 500.000000 500.000000"
 preserveAspectRatio="xMidYMid meet">
<metadata>
Created by potrace 1.11, written by Peter Selinger 2001-2013
</metadata>
<g transform="translate(0.000000,500.000000) scale(0.100000,-0.100000)"
fill="#000000" stroke="none">
<path d="M452 3944 c-22 -15 -22 -19 -22 -233 0 -172 3 -221 14 -237 14 -18
30 -19 297 -21 155 -1 288 -4 295 -7 12 -5 14 -199 14 -1175 0 -1107 1 -1170
18 -1191 17 -21 23 -22 247 -22 292 0 278 -1 301 16 19 14 19 38 19 1190 0
646 3 1177 6 1181 4 3 171 6 373 5 201 0 377 2 390 6 42 10 47 44 44 268 -3
192 -4 209 -22 222 -17 12 -168 14 -986 14 -858 0 -968 -2 -988 -16z"/>
<path d="M2844 3946 c-19 -14 -19 -42 -22 -1429 -2 -1364 -2 -1415 16 -1437
l19 -23 369 -3 c1100 -7 1164 -7 1185 12 18 16 19 33 19 231 0 269 10 253
-162 254 -473 2 -850 7 -855 13 -4 3 -7 532 -8 1174 -1 642 -2 1172 -3 1179
-1 6 -9 19 -18 27 -13 14 -52 16 -268 16 -202 0 -256 -3 -272 -14z"/>
<path d="M2168 1587 c-34 -7 -48 -14 -48 -26 0 -11 -3 -12 -8 -4 -10 17 -106
-53 -98 -73 3 -7 0 -13 -6 -11 -10 2 -26 -23 -48 -73 -3 -8 -7 -37 -9 -64 -2
-38 0 -46 11 -40 11 6 11 5 0 -8 -8 -10 -9 -18 -3 -22 6 -4 8 -13 5 -20 -3 -7
2 -21 11 -29 9 -9 16 -19 15 -22 -1 -18 3 -24 28 -52 51 -57 104 -84 176 -90
37 -2 74 -1 84 3 18 7 27 10 50 12 7 1 10 7 6 14 -5 7 -2 9 9 5 9 -3 30 6 53
24 20 16 34 29 31 29 -3 0 5 12 18 26 14 15 25 35 25 45 0 10 5 21 10 24 6 3
10 11 10 16 0 6 -4 8 -8 5 -5 -3 -9 1 -9 9 0 8 3 13 6 12 3 -1 6 3 6 8 0 6 -4
9 -8 7 -5 -1 -6 2 -2 8 3 6 11 8 16 5 17 -11 9 18 -8 31 -16 13 -16 14 -1 8
15 -5 16 -2 7 28 -6 18 -11 39 -12 46 0 6 -5 12 -10 12 -6 0 -7 3 -4 7 9 8
-13 34 -23 28 -5 -3 -6 4 -3 15 4 14 0 20 -11 20 -9 0 -16 6 -16 13 -1 16 -66
57 -96 59 -13 1 -24 7 -24 12 0 5 -3 7 -6 3 -3 -3 -17 -2 -30 3 -17 7 -24 6
-24 -3 0 -8 -3 -8 -8 -2 -5 7 -23 8 -54 2z m79 -54 c0 -9 -4 -10 -14 -2 -7 6
-13 12 -13 14 0 1 6 2 13 2 8 0 14 -6 14 -14z m-41 -8 c-1 -8 -5 -17 -8 -21
-5 -4 -4 16 1 34 3 9 9 -1 7 -13z m118 -3 c3 -5 -1 -9 -9 -9 -8 0 -12 4 -9 9
3 4 7 8 9 8 2 0 6 -4 9 -8z m-278 -27 c-1 -8 -5 -17 -8 -21 -5 -4 -4 16 1 34
3 9 9 -1 7 -13z m314 -15 c12 -8 9 -10 -10 -8 -16 2 -24 -2 -22 -10 1 -8 -2
-11 -8 -7 -8 5 -7 11 1 21 14 16 19 17 39 4z m-114 -15 c-1 -8 -5 -17 -8 -21
-5 -4 -4 16 1 34 3 9 9 -1 7 -13z m43 2 c8 -10 7 -14 -2 -14 -8 0 -14 6 -14
14 0 7 1 13 2 13 2 0 8 -6 14 -13z m120 0 c8 -10 7 -14 -2 -14 -8 0 -14 6 -14
14 0 7 1 13 2 13 2 0 8 -6 14 -13z m-403 -53 c3 -16 2 -26 -1 -23 -3 4 -8 19
-11 35 -3 16 -2 26 1 23 3 -4 8 -19 11 -35z m119 27 c3 -5 2 -12 -3 -15 -5 -3
-9 1 -9 9 0 17 3 19 12 6z m96 -8 c12 -16 12 -17 -2 -6 -9 7 -20 9 -24 5 -5
-4 -5 -1 -1 6 9 16 11 15 27 -5z m-175 -28 c1 -8 -2 -15 -6 -15 -5 0 -8 9 -7
20 1 21 10 18 13 -5z m50 13 c3 -4 -1 -5 -10 -4 -8 1 -18 5 -22 8 -3 4 1 5 10
4 8 -1 18 -5 22 -8z m-107 -51 c8 -10 7 -14 -2 -14 -8 0 -14 6 -14 14 0 7 1
13 2 13 2 0 8 -6 14 -13z m296 1 c5 4 5 1 1 -6 -6 -10 -11 -10 -22 -1 -8 6
-14 14 -14 16 0 3 6 0 13 -6 8 -6 18 -7 22 -3z m82 -3 c0 -8 -4 -12 -9 -9 -5
3 -6 10 -3 15 9 13 12 11 12 -6z m60 0 c0 -8 -4 -15 -9 -15 -10 0 -11 14 -1
23 9 10 10 9 10 -8z m-181 -20 c-1 -8 -5 -17 -8 -21 -5 -4 -4 16 1 34 3 9 9
-1 7 -13z m-81 -4 c3 -5 2 -12 -3 -15 -5 -3 -9 1 -9 9 0 17 3 19 12 6z m40 1
c-3 -3 3 -15 12 -26 14 -15 14 -18 2 -8 -9 6 -20 8 -25 4 -5 -4 -6 -3 -2 2 4
5 3 14 -2 21 -7 8 -5 12 5 12 8 0 13 -3 10 -5z m206 -19 c13 -16 12 -17 -3 -4
-10 7 -18 15 -18 17 0 8 8 3 21 -13z m-310 -10 c12 -16 12 -17 -2 -6 -9 7 -20
9 -24 5 -5 -4 -5 -1 -1 6 9 16 11 15 27 -5z m246 0 c0 -8 -4 -10 -12 -3 -7 5
-16 6 -20 2 -5 -4 -5 -2 -2 4 9 15 34 13 34 -3z m-341 -19 c-1 -8 -6 -17 -12
-21 -5 -4 -6 -4 -2 1 4 5 3 14 -2 21 -7 8 -5 12 4 12 8 0 13 -6 12 -13z m445
3 c-6 -8 -7 -18 -3 -22 4 -5 1 -5 -6 -1 -10 6 -10 11 -1 22 6 8 14 14 16 14 3
0 0 -6 -6 -13z m-346 -18 c3 -3 -6 -5 -19 -5 -14 1 -28 4 -31 7 -3 3 6 5 19 5
14 -1 28 -4 31 -7z m115 5 c0 -8 -19 -13 -24 -6 -3 5 1 9 9 9 8 0 15 -2 15 -3z
m124 -5 c3 -3 -4 -5 -14 -6 -11 -1 -20 2 -20 7 0 8 25 8 34 -1z m-178 -25 c1
-9 0 -13 -4 -10 -3 4 -7 14 -8 22 -1 9 0 13 4 10 3 -4 7 -14 8 -22z m-83 -7
c4 3 7 1 7 -5 0 -6 -8 -10 -18 -9 -10 0 -19 7 -19 14 0 9 4 10 12 3 7 -5 15
-7 18 -3z m163 -22 c-1 -8 -5 -17 -8 -21 -5 -4 -4 16 1 34 3 9 9 -1 7 -13z
m43 2 c8 -10 7 -14 -2 -14 -8 0 -14 6 -14 14 0 7 1 13 2 13 2 0 8 -6 14 -13z
m70 -11 c9 -11 9 -16 -1 -22 -7 -4 -10 -4 -6 1 4 4 3 14 -3 22 -6 7 -9 13 -6
13 2 0 10 -6 16 -14z m-252 -23 c0 -9 -4 -10 -12 -3 -7 5 -15 7 -18 3 -4 -3
-7 -1 -7 5 0 6 8 10 18 9 10 0 19 -7 19 -14z m114 0 c12 -16 12 -17 -2 -6 -9
7 -20 9 -24 5 -5 -4 -5 -1 -1 6 9 16 11 15 27 -5z m-116 -33 c3 -5 1 -10 -4
-10 -6 0 -11 5 -11 10 0 6 2 10 4 10 3 0 8 -4 11 -10z m120 -2 c4 -4 -1 -5
-12 -4 -10 2 -23 0 -29 -5 -6 -5 -11 -4 -11 5 0 13 40 16 52 4z m-91 -37 c-8
-8 -34 -10 -38 -2 -3 4 6 7 19 7 14 0 22 -2 19 -5z m76 3 c0 -8 -19 -13 -24
-6 -3 5 1 9 9 9 8 0 15 -2 15 -3z m120 -5 c0 -4 -9 -7 -19 -6 -11 0 -18 4 -16
7 6 9 35 8 35 -1z m-84 -23 c0 -14 -3 -23 -7 -20 -6 3 -6 22 0 42 3 10 7 -2 7
-22z"/>
</g>
</svg>
