<?xml version="1.0" encoding="utf-8"?>
<svg viewBox="0 0 500 500" xmlns="http://www.w3.org/2000/svg">
  <path d="M 237.789 104.123 C 242.488 104.123 244.837 106.472 244.837 111.171 L 244.837 147.65 C 244.837 152.349 242.488 154.698 237.789 154.698 L 166.07 154.698 C 164.411 154.698 163.582 155.528 163.582 157.186 L 163.582 387.262 C 163.582 391.961 161.232 394.31 156.534 394.31 L 112.184 394.31 C 107.486 394.31 105.136 391.961 105.136 387.262 L 105.136 157.186 C 105.136 155.528 104.307 154.698 102.648 154.698 L 49.918 154.698 C 45.219 154.698 42.87 152.349 42.87 147.65 L 42.87 111.171 C 42.87 106.472 45.219 104.123 49.918 104.123 L 237.789 104.123 Z M 289.193 394.31 C 284.494 394.31 282.145 391.961 282.145 387.262 L 282.145 111.171 C 282.145 106.472 284.494 104.123 289.193 104.123 L 333.553 104.123 C 338.251 104.123 340.601 106.472 340.601 111.171 L 340.601 341.663 C 340.601 343.322 341.43 344.152 343.089 344.152 L 436.091 345.042 C 440.79 345.042 443.139 347.392 443.139 352.09 L 443.139 388.153 C 443.139 392.851 440.79 395.201 436.091 395.201 L 289.193 394.31 Z" style="white-space: pre; fill: rgb(78, 84, 99);"/>
  <circle cx="222.279" cy="367.918" r="27.429" style="fill: rgba(255, 150, 57, 0.76);"/>
</svg>